<?xml version="1.0" encoding="utf-8"?>
<!-- Generator: Adobe Illustrator 20.1.0, SVG Export Plug-In . SVG Version: 6.00 Build 0)  -->
<svg version="1.1" id="Layer_1" xmlns="http://www.w3.org/2000/svg" xmlns:xlink="http://www.w3.org/1999/xlink" x="0px" y="0px"
	 viewBox="0 0 208.2 154.9" style="enable-background:new 0 0 208.2 154.9;" xml:space="preserve">
<style type="text/css">
	.st0{fill:#F2B725;}
</style>
<g>
	<path class="st0" d="M5.6,74.7c0,0-0.3-0.4-0.9-1c-0.6-0.7-1.3-1.7-2-3.1c-1.4-2.9-2.9-7.4-2.6-13c0.1-1.4,0.2-2.9,0.5-4.4
		c0.2-0.8,0.3-1.5,0.5-2.3c0.2-0.8,0.5-1.5,0.8-2.3c1.1-3.2,2.6-6.5,4.5-9.8c3.8-6.7,9.2-13.6,16.5-19.4c3.6-2.9,7.6-5.5,12-7.9
		c4.3-2.3,9-4.3,13.8-5.9C58.4,2.4,69,0.5,79.8,0.1l2-0.1l2,0L86,0L88,0.1l2,0.1c0.7,0,1.4,0.1,2.1,0.2c1.4,0.1,2.8,0.3,4.2,0.5
		c5.5,0.7,11,1.9,16.4,3.7c10.8,3.4,21.1,8.9,29.9,16.4c4.4,3.7,8.4,7.9,11.8,12.5c3.4,4.6,6.3,9.6,8.5,14.8
		c4.5,10.5,6,21.9,4.9,32.6c-1.1,10.8-4.9,20.7-10.2,29c-5.3,8.3-11.9,14.9-18.7,20c-6.8,5.1-13.8,8.6-20.3,11
		c-6.4,2.5-12.3,3.7-17.2,4.5c-4.9,0.8-8.7,0.9-11.4,1.1c-2.6,0-4,0-4,0v-1c0,0,1.4-0.1,4-0.1c2.6-0.2,6.4-0.4,11.2-1.4
		c4.7-0.9,10.5-2.3,16.7-4.9c6.2-2.5,12.9-6.2,19.4-11.3c6.5-5.1,12.7-11.6,17.5-19.7c2.4-4,4.5-8.4,6-13c1.5-4.6,2.5-9.6,2.9-14.6
		c0.8-10.1-0.7-20.7-5.1-30.4c-2.1-4.8-4.9-9.5-8.1-13.8c-3.2-4.3-7-8.2-11.1-11.6c-4.1-3.5-8.6-6.5-13.4-9c-4.8-2.5-9.8-4.5-14.9-6
		C106,8.4,100.8,7.4,95.6,7c-1.3-0.1-2.6-0.2-3.8-0.2c-0.6,0-1.2-0.1-1.9-0.1l-2,0l-1.9,0l-1.9,0.1l-1.9,0.1l-1.9,0.2
		c-10,0.9-19.4,4.1-27.2,8.6c-3.9,2.2-7.5,4.7-10.7,7.4c-3.2,2.6-6,5.4-8.5,8.2c-5,5.6-8.8,11.2-11.6,16.3c-1.4,2.6-2.6,5.1-3.5,7.4
		c-1,2.4-1.9,4.5-2.9,6.4c-2,3.9-4.2,7.1-6.1,9.4c-0.9,1.2-1.6,2.2-2.2,2.9c-0.6,0.7-0.9,1-0.9,1L5.6,74.7z"/>
</g>
<g>
	<path class="st0" d="M157,154.9c0,0-0.6,0-1.9-0.1c-0.6-0.1-1.4,0-2.2-0.2c-0.9-0.1-1.9-0.3-3.1-0.5c-1.1-0.3-2.4-0.6-3.7-1
		c-0.7-0.2-1.3-0.5-2-0.7c-0.4-0.1-0.7-0.2-1.1-0.4c-0.4-0.2-0.7-0.3-1.1-0.5c-2.9-1.3-6-3.2-9-5.8c-3-2.6-5.8-5.9-8-10
		c-2.2-4-3.8-8.7-4.3-13.7c-0.1-0.6-0.1-1.3-0.2-1.9l-0.1-1l0-1c0-0.6,0-1.2,0-1.9l0-0.9l0.1-1c0.2-1.3,0.3-2.7,0.6-4l0.4-2
		c0.1-0.7,0.4-1.3,0.6-1.9c1.6-5.1,4.4-10,8.2-14.1c3.8-4.1,8.4-7.5,13.6-9.8c0.6-0.3,1.3-0.6,1.9-0.8l2-0.7
		c1.3-0.5,2.7-0.8,4.1-1.1l1-0.2l1-0.2c0.7-0.1,1.4-0.2,2.1-0.3l0.5-0.1l0.3,0l0.1,0c0.1,0-0.2,0,0.3,0l0.1,0l0.9,0
		c0.6,0,1.2-0.1,1.8-0.1c0.3,0,0.6,0,0.9,0l1.1,0.1c0.7,0,1.5,0.1,2.2,0.1c0.8,0,1.4,0.1,2.1,0.3c0.7,0.1,1.4,0.2,2,0.3
		c1.4,0.2,2.6,0.6,4,1c0.7,0.2,1.3,0.4,1.9,0.6c0.6,0.2,1.2,0.5,1.9,0.7c4.9,2,9.1,5,12.5,8.3c3.4,3.3,6,6.9,7.7,10.4
		c0.2,0.4,0.4,0.9,0.7,1.3c0.2,0.4,0.4,0.9,0.5,1.3c0.3,0.9,0.7,1.7,1,2.5c0.5,1.6,0.9,3.1,1.3,4.5c0.2,1.4,0.4,2.6,0.6,3.7
		c0.1,0.5,0.1,1,0.2,1.5c0,0.5-0.2,0.9-0.5,1.3c-0.3,0.4-0.7,0.7-1.2,1c-0.3,0.1-0.5,0.3-0.7,0.4c-0.3,0.1-0.5,0.2-0.7,0.3
		c-0.2,0.1-0.5,0.2-0.7,0.2c-0.2,0.1-0.4,0.1-0.5,0.2c-0.3,0.1-0.5,0.1-0.5,0.1h-7c0,0-0.2,0-0.5-0.1c-0.2,0-0.4-0.1-0.6-0.1
		c-0.2-0.1-0.5-0.1-0.7-0.2c-0.2-0.1-0.5-0.1-0.8-0.2c-0.2-0.1-0.5-0.2-0.7-0.2c-0.5-0.2-1-0.4-1.3-0.6c-0.4-0.2-0.6-0.5-0.6-0.7
		c0-0.3,0-0.6-0.1-0.9c-0.1-0.7-0.2-1.4-0.3-2.3c-0.2-0.8-0.4-1.8-0.6-2.8c-0.2-0.5-0.3-1-0.5-1.6c-0.1-0.3-0.2-0.5-0.3-0.8
		c-0.1-0.3-0.2-0.5-0.3-0.8c-0.8-2.3-2.2-4.7-4-7.2c-1.8-2.5-4.2-4.9-7.3-7c-0.4-0.2-0.8-0.5-1.2-0.7c-0.4-0.3-0.8-0.5-1.2-0.7
		c-0.4-0.2-0.9-0.4-1.3-0.7c-0.4-0.2-0.9-0.5-1.3-0.6c-0.5-0.2-0.9-0.4-1.4-0.5c-0.5-0.2-0.9-0.4-1.4-0.5c-0.4-0.1-0.9-0.3-1.4-0.4
		l-0.7-0.2c-0.3-0.1-0.6-0.1-0.9-0.2c-0.6-0.1-1.2-0.2-1.8-0.3l-0.9-0.1l-0.1,0c0.5,0,0.1,0,0.2,0l-0.1,0l-0.2,0l-0.4,0
		c-0.5,0-1.1-0.1-1.6-0.1l-0.8-0.1l-0.8,0c-1.1,0.1-2.2,0-3.3,0.3l-1.7,0.3c-0.6,0.1-1.1,0.3-1.7,0.4c-4.5,1.2-8.8,3.4-12.4,6.7
		c-3.6,3.3-6.4,7.4-8.2,11.8c-0.2,0.6-0.5,1.1-0.7,1.7l-0.5,1.7c-0.4,1.2-0.5,2.3-0.8,3.5l-0.2,0.9l-0.1,0.9
		c-0.1,0.6-0.1,1.2-0.2,1.9l-0.1,0.8l0,0.9c0,0.6,0,1.2,0,1.8c0.2,4.7,1.4,9.2,3.3,13.1c1.9,3.9,4.5,7.2,7.3,9.8
		c2.8,2.6,5.7,4.6,8.6,5.9c0.3,0.2,0.7,0.3,1,0.5c0.3,0.1,0.7,0.3,1,0.4c0.7,0.3,1.3,0.5,2,0.7c1.3,0.4,2.5,0.7,3.6,1
		c1.1,0.2,2.1,0.3,2.9,0.4c0.9,0.1,1.6,0.1,2.2,0.1c1.2,0.1,1.9,0.1,1.9,0.1L157,154.9z"/>
</g>
<g>
	<path class="st0" d="M85.6,112.1c0,0-0.2-0.1-0.6-0.4c-0.4-0.3-0.9-0.7-1.4-1.2c-0.3-0.3-0.5-0.5-0.8-0.8c-0.1-0.2-0.2-0.3-0.3-0.5
		c-0.1-0.2-0.2-0.4-0.3-0.6c-0.3-0.9-0.6-2.1-0.5-3.2c0-0.5,0.1-1.1,0.3-1.7c0.1-0.3,0.2-0.6,0.3-0.9c0.1-0.3,0.2-0.6,0.4-0.9
		c0.3-0.6,0.5-1.2,0.8-1.9c0.3-0.6,0.7-1.2,1.1-1.9c0.2-0.3,0.4-0.7,0.6-1c0.2-0.3,0.5-0.6,0.7-0.9c0.5-0.6,0.9-1.3,1.5-1.9
		c0.6-0.6,1.1-1.2,1.7-1.9c0.6-0.6,1.3-1.2,2-1.7c2.8-2.3,6.1-4.2,9.8-5.4c3.7-1.3,7.8-1.9,12-1.8c0.5,0,1,0.1,1.6,0.1l0.8,0l0,0
		c0.3,0,0.1,0,0.2,0l0.1,0l0.2,0l0.4,0.1l1.4,0.2c0.5,0.1,0.9,0.1,1.5,0.3c2.2,0.4,4.2,1,6.2,1.8c3.9,1.6,7.6,3.9,10.6,6.8
		c1.5,1.4,2.9,3,4.1,4.7c0.6,0.9,1.1,1.7,1.6,2.6l0.7,1.4l0.3,0.7l0.3,0.7c1.5,3.7,2,7.7,1.6,11.4c-0.1,0.9-0.3,1.8-0.5,2.8
		c-0.2,0.9-0.5,1.8-0.8,2.6c-0.4,0.8-0.7,1.7-1.1,2.5c-0.4,0.8-0.8,1.6-1.3,2.3c-1.9,2.9-4.2,5.3-6.6,7.1c-2.4,1.8-4.9,3.1-7.2,4
		c-0.6,0.2-1.1,0.4-1.7,0.6c-0.5,0.2-1.1,0.4-1.6,0.5c-1,0.2-2,0.5-2.9,0.7c-0.9,0.1-1.7,0.3-2.3,0.4c-0.7,0.1-1.3,0.1-1.7,0.1
		c-1,0.1-1.5,0.1-1.5,0.1v-1c0,0,0.5,0,1.4,0c0.5,0,1,0,1.7,0c0.7-0.1,1.4-0.2,2.3-0.2c0.9-0.1,1.8-0.3,2.8-0.5c1-0.2,2.1-0.6,3.3-1
		c2.3-0.8,4.8-2,7.2-3.8c2.5-1.7,4.8-4.1,6.7-6.9c1.9-2.9,3.3-6.4,3.6-10.1c0.3-3.7-0.4-7.7-2.1-11.2c-1.7-3.5-4.5-6.5-7.7-8.6
		c-3.2-2.2-6.9-3.5-10.5-4.2c-0.9-0.2-1.8-0.2-2.7-0.4c-0.9-0.1-1.8,0-2.6-0.1c-0.4,0-0.9,0-1.4,0c-0.5,0-1,0.1-1.4,0.1l-0.4,0
		l-0.2,0l-0.1,0c0,0-0.2,0,0.1,0l0,0l-0.6,0.1c-0.4,0.1-0.8,0.1-1.3,0.2c-3.4,0.6-6.4,1.7-9,3.1c-2.6,1.4-4.8,3.1-6.6,4.8
		c-1.8,1.7-3,3.6-3.9,5.2c-0.2,0.4-0.5,0.8-0.6,1.2c-0.2,0.4-0.3,0.8-0.5,1.2c-0.1,0.2-0.2,0.4-0.2,0.6c0,0.2-0.1,0.4-0.1,0.5
		c-0.1,0.4-0.3,0.7-0.5,1c-0.2,0.3-0.4,0.5-0.6,0.8c-0.2,0.2-0.5,0.4-0.8,0.7c-0.3,0.2-0.6,0.4-0.9,0.7c-0.3,0.3-0.6,0.5-0.9,0.7
		c-0.5,0.4-1.1,0.8-1.5,1c-0.4,0.2-0.6,0.3-0.6,0.3L85.6,112.1z"/>
</g>
<g>
	<path class="st0" d="M102.8,136.9c0,0,1.1,0,3.2-0.1c2-0.1,5.1-0.3,8.8-0.9c3.8-0.7,8.3-1.8,13.3-3.8c4.9-2,10.3-4.8,15.5-8.8
		c5.2-4,10.1-9.2,14-15.7c3.8-6.4,6.5-14,7.1-22.1c0.6-8-0.8-16.5-4.3-24.2c-1.7-3.8-4-7.5-6.6-10.8c-2.6-3.3-5.7-6.3-9-9
		c-6.6-5.3-14.4-9.2-22.4-11.4c-8.1-2.2-16.3-2.5-24.1-1.2c-0.9,0.2-1.8,0.3-2.8,0.6c-0.9,0.2-1.9,0.4-2.8,0.7
		c-0.9,0.3-1.8,0.5-2.7,0.8c-0.9,0.3-1.8,0.6-2.6,0.9c-3.4,1.3-6.6,2.9-9.6,4.6c-5.9,3.5-10.6,7.6-14.5,11.7
		c-3.9,4.1-6.7,8.3-8.9,12.1c-0.3,0.5-0.5,1-0.8,1.4c-0.2,0.5-0.5,0.9-0.7,1.4c-0.4,0.9-0.9,1.8-1.3,2.7c-0.5,0.8-0.9,1.7-1.4,2.4
		c-0.5,0.8-0.9,1.5-1.5,2.2c-2,2.9-4.1,5.3-5.7,7.2c-0.8,0.9-1.5,1.7-2.1,2.2c-0.5,0.5-0.8,0.8-0.8,0.8h-1c0,0-0.3-0.3-0.8-0.8
		c-0.5-0.6-1.2-1.4-1.9-2.5c-1.4-2.3-2.9-5.9-3.1-10.5c-0.1-2.3,0.2-4.9,0.9-7.5c0.7-2.7,2-5.3,3.5-8.1c3-5.5,7.4-11.3,13.3-16.1
		c5.8-4.9,13-9,21.1-11.5c4-1.3,8.2-2.2,12.5-2.8c2.1-0.3,4.3-0.5,6.5-0.6c1.1-0.1,2.2-0.1,3.3-0.1l1.7,0l1.7,0
		c8.7,0.2,17.7,1.7,26.3,4.6c8.6,2.8,16.8,7.4,23.6,13.5c6.9,6.1,12.4,13.6,15.7,21.9c3.4,8.3,4.5,17.3,3.6,25.7
		c-0.9,8.4-3.9,16.3-8,22.7c-4.1,6.5-9.3,11.8-14.7,15.8c-5.3,4-10.8,6.9-15.9,8.8c-5,2-9.7,3-13.5,3.7c-3.8,0.7-6.9,0.9-9,1
		c-2.1,0.1-3.2,0.1-3.2,0.1L102.8,136.9z"/>
</g>
<g>
	<path class="st0" d="M71.9,94.5c0,0-0.1-0.2-0.4-0.6c-0.2-0.4-0.6-1-1.1-1.7c-0.2-0.4-0.5-0.8-0.8-1.3c-0.3-0.5-0.6-1-1-1.6
		c-0.7-1.3-1.7-2.9-2.1-4.7c-0.2-0.9-0.4-1.8-0.4-2.7c0-0.9,0.2-1.9,0.6-2.8c0.4-0.9,0.9-1.8,1.5-2.7c0.3-0.5,0.6-0.9,0.9-1.4
		c0.3-0.4,0.7-0.9,1.1-1.3c0.7-0.9,1.5-1.8,2.3-2.7c0.9-0.8,1.8-1.7,2.7-2.6c0.4-0.4,0.9-0.9,1.4-1.3c0.5-0.4,0.9-0.8,1.4-1.3
		c0.5-0.4,0.9-0.9,1.4-1.3c0.5-0.4,1-0.9,1.4-1.3c0.5-0.4,0.9-0.9,1.4-1.4c0.5-0.5,1-0.9,1.5-1.3c0.5-0.5,1-0.9,1.5-1.4
		c0.5-0.5,1-0.9,1.5-1.4c0.5-0.4,1.1-0.9,1.6-1.3l0.8-0.7c0.3-0.2,0.6-0.4,0.9-0.6c0.6-0.4,1.2-0.8,1.8-1.2c0.6-0.4,1.2-0.8,1.9-1.1
		c0.7-0.3,1.3-0.7,2-1c0.7-0.3,1.3-0.7,2.1-0.9c0.7-0.3,1.4-0.5,2.2-0.8c0.7-0.3,1.4-0.6,2.2-0.7c0.8-0.2,1.5-0.4,2.3-0.6
		c0.8-0.2,1.5-0.4,2.3-0.5c0.8-0.1,1.6-0.2,2.4-0.3l1.2-0.1c0.4,0,0.8,0,1.2,0c0.8,0,1.6,0,2.4-0.1l1.2,0l0.1,0c0.4,0,0.2,0,0.3,0
		l0.1,0l0.3,0l0.6,0c0.7,0.1,1.5,0.1,2.3,0.2l1.1,0.1l1.3,0.2c1.7,0.3,3.4,0.6,5,1.1c0.8,0.2,1.6,0.5,2.4,0.7
		c0.8,0.2,1.6,0.6,2.3,0.9c6.2,2.5,11.9,6.4,16.6,11.3c4.6,4.9,8.1,10.8,10.2,17c2.1,6.2,2.7,12.8,2.1,18.8
		c-0.6,6.2-2.5,12-5.2,16.9c-2.7,4.9-6.2,9-9.8,12.2c-3.7,3.2-7.5,5.5-11.1,7.1c-0.4,0.2-0.9,0.4-1.3,0.6c-0.4,0.2-0.9,0.3-1.3,0.5
		c-0.9,0.3-1.7,0.6-2.5,0.9c-1.6,0.5-3.2,0.8-4.5,1.1c-1.4,0.2-2.6,0.4-3.7,0.5c-0.5,0.1-1,0.1-1.5,0.1c-0.5,0-0.9,0-1.3,0
		c-1.5,0-2.3,0.1-2.3,0.1v-1c0,0,0.8-0.1,2.2-0.2c0.4,0,0.8-0.1,1.2-0.1c0.4,0,0.9-0.1,1.5-0.2c1-0.2,2.2-0.4,3.6-0.6
		c1.3-0.4,2.8-0.7,4.3-1.2c0.8-0.3,1.6-0.6,2.4-0.9c0.4-0.2,0.8-0.3,1.3-0.5c0.4-0.2,0.8-0.4,1.2-0.6c3.4-1.6,7-4,10.3-7.2
		c3.3-3.2,6.4-7.2,8.7-11.9c2.3-4.7,3.8-10.1,4.1-15.7c0.3-5.8-0.6-11.6-2.7-17c-2.1-5.5-5.5-10.5-9.8-14.6c-4.3-4-9.5-7-15-8.7
		c-0.7-0.2-1.3-0.5-2-0.6c-0.7-0.1-1.4-0.3-2.1-0.4c-1.4-0.4-2.7-0.4-4-0.6l-1-0.1c-0.4,0-0.8,0-1.1,0c-0.8,0-1.5,0-2.3,0l-0.6,0
		l-0.3,0l-0.1,0c0.1,0-0.2,0,0.1,0l-0.1,0l-1,0.1c-0.7,0.1-1.3,0.1-2,0.2c-2.7,0.3-5.2,0.9-7.7,1.6c-0.6,0.1-1.2,0.4-1.8,0.6
		c-0.6,0.2-1.2,0.4-1.8,0.6c-0.6,0.2-1.2,0.5-1.7,0.7c-0.6,0.3-1.1,0.5-1.7,0.8c-2.2,1.1-4.2,2.4-6.1,3.7c-1,0.6-1.8,1.4-2.7,2.1
		c-0.4,0.4-0.8,0.7-1.2,1.2c-0.4,0.4-0.7,0.9-1,1.3c-0.3,0.4-0.6,0.9-0.9,1.3c-0.3,0.4-0.5,0.9-0.7,1.4c-0.2,0.5-0.4,0.9-0.6,1.4
		C84,73,83.8,73.5,83.7,74c-0.2,1-0.4,1.9-0.6,2.8c-0.2,0.9-0.2,1.8-0.3,2.7c-0.1,0.4-0.1,0.8-0.2,1.2c0,0.4-0.1,0.8-0.1,1.2
		c-0.1,0.8-0.2,1.5-0.3,2.1c-0.1,0.7-0.2,1.3-0.6,1.8c-0.4,0.5-1,1-1.5,1.5c-0.8,0.9-2.3,1.7-3.2,2.5c-0.2,0.2-0.5,0.4-0.7,0.6
		c-0.2,0.2-0.4,0.5-0.6,0.7c-0.4,0.4-0.7,0.8-1,1.2c-0.6,0.7-1,1.3-1.3,1.6c-0.3,0.4-0.4,0.6-0.4,0.6L71.9,94.5z"/>
</g>
<g>
	<path class="st0" d="M158.1,119.8c0,0-0.7,0-2.1-0.1c-0.7-0.1-1.5,0-2.6-0.2c-1-0.1-2.2-0.3-3.5-0.5c-1.3-0.2-2.7-0.6-4.2-1
		c-0.8-0.2-1.5-0.5-2.3-0.8c-0.8-0.3-1.7-0.5-2.5-0.9c-0.8-0.4-1.7-0.7-2.6-1.1c-0.9-0.4-1.7-0.9-2.6-1.4c-0.4-0.2-0.9-0.5-1.4-0.8
		c-0.4-0.3-0.9-0.6-1.3-0.9c-0.9-0.6-1.8-1.2-2.7-1.9c-3.5-2.8-6.9-6.4-9.6-10.8c-2.7-4.4-4.5-9.7-5.1-15.3c0-0.7-0.1-1.4-0.1-2.1
		l-0.1-1.1c0-0.4,0-0.7,0-1.1c0.1-1.4,0.1-2.8,0.4-4.3c0.1-0.7,0.2-1.4,0.4-2.2c0.1-0.7,0.4-1.4,0.5-2.1c0.2-0.7,0.4-1.4,0.6-2.1
		l0.8-2.1c2.2-5.5,5.8-10.5,10.4-14.5c4.5-4,9.9-7,15.6-8.8c5.6-1.8,11.6-2.5,17.2-2.2c5.7,0.3,11.1,1.7,15.9,3.8
		c0.6,0.3,1.2,0.5,1.8,0.8c0.6,0.3,1.1,0.6,1.7,0.9c0.6,0.3,1.1,0.6,1.7,0.9c0.5,0.3,1.1,0.6,1.6,0.9c0.6,0.3,1.1,0.6,1.7,0.8
		c0.6,0.3,1.1,0.6,1.7,0.9c0.6,0.3,1.1,0.5,1.7,0.8c0.6,0.2,1.1,0.5,1.7,0.8c0.6,0.3,1.1,0.6,1.7,0.8c0.5,0.3,1.2,0.5,1.7,0.9
		c1.1,0.6,2.1,1.3,3.2,1.9c2,1.4,3.9,2.9,5.4,4.6c3.1,3.3,4.6,7.1,5.3,10.3c0.3,1.6,0,3.1-0.5,4.4c-0.1,0.3-0.3,0.6-0.5,0.9
		c-0.2,0.3-0.4,0.6-0.6,0.9c-0.2,0.3-0.5,0.5-0.7,0.8c-0.2,0.2-0.5,0.5-0.7,0.7c-0.5,0.4-1.1,0.8-1.5,1.1c-0.5,0.3-1,0.6-1.3,0.7
		c-0.9,0.4-1.3,0.6-1.3,0.6h-1c0,0-0.5-0.2-1.4-0.5c-0.4-0.2-0.8-0.4-1.4-0.6c-0.5-0.2-1-0.5-1.6-0.7c-2.1-1.1-4.4-2.3-4.8-4.2
		c-0.6-1.9-0.9-4.2-1.4-7.2c-0.1-0.8-0.1-1.6-0.3-2.4c-0.1-0.8-0.3-1.8-0.4-2.7c-0.2-0.9-0.5-1.9-0.8-2.9c-0.3-1-0.7-1.9-1.2-3
		c-0.4-1-1.1-1.9-1.7-2.8c-0.3-0.5-0.7-0.9-1.1-1.3c-0.4-0.4-0.8-0.8-1.3-1.2c-0.4-0.4-0.9-0.8-1.4-1.1c-0.5-0.3-1-0.6-1.5-0.9
		c-0.5-0.3-1.1-0.6-1.6-0.9c-0.5-0.3-1.1-0.5-1.7-0.8c-4.5-2.1-9.6-3.5-15-3.9c-5.5-0.4-11.1,0.1-16.6,1.8
		c-5.5,1.7-10.7,4.5-15.2,8.2c-0.6,0.4-1.1,0.9-1.6,1.5l-1.6,1.5c-1,1.1-1.9,2.2-2.8,3.3c-1.7,2.4-3.2,4.9-4.3,7.5l-0.8,2
		c-0.2,0.7-0.4,1.4-0.6,2.1c-0.2,0.7-0.4,1.4-0.5,2.1c-0.1,0.7-0.2,1.4-0.4,2.1c-0.3,1.4-0.3,2.8-0.4,4.2c0,0.3,0,0.7-0.1,1l0.1,1
		c0,0.7,0.1,1.4,0.1,2.1c0.5,5.5,2.2,10.6,4.8,14.9c2.6,4.4,5.9,7.9,9.4,10.6c0.8,0.7,1.8,1.3,2.6,1.9c0.4,0.3,0.9,0.6,1.3,0.9
		c0.5,0.2,0.9,0.5,1.3,0.7c0.9,0.5,1.7,1,2.6,1.4c0.9,0.4,1.7,0.8,2.5,1.1c0.8,0.4,1.7,0.6,2.4,0.9c0.8,0.3,1.6,0.5,2.3,0.7
		c1.5,0.3,2.9,0.7,4.2,0.9c1.3,0.2,2.4,0.3,3.4,0.4c1,0.1,1.9,0.1,2.5,0.1c1.4,0.1,2.1,0.1,2.1,0.1L158.1,119.8z"/>
</g>
</svg>
